<?xml version="1.0" standalone="no"?>
<!DOCTYPE svg PUBLIC "-//W3C//DTD SVG 20010904//EN"
 "http://www.w3.org/TR/2001/REC-SVG-20010904/DTD/svg10.dtd">
<svg version="1.0" xmlns="http://www.w3.org/2000/svg"
 width="154.000000pt" height="154.000000pt" viewBox="0 0 154.000000 154.000000"
 preserveAspectRatio="xMidYMid meet">
<metadata>
Created by potrace 1.14, written by Peter Selinger 2001-2017
</metadata>
<g transform="translate(0.000000,154.000000) scale(0.100000,-0.100000)"
fill="#000000" stroke="none">
<path d="M754 1342 c-16 -10 -30 -69 -28 -114 1 -31 -2 -38 -17 -38 -10 0 -20
-9 -24 -19 -4 -15 -14 -19 -43 -17 -56 4 -132 -17 -198 -54 -112 -63 -149 -79
-190 -84 -53 -5 -112 21 -148 65 -25 31 -27 32 -20 9 26 -94 87 -140 184 -140
40 0 70 10 157 55 163 83 239 99 284 59 18 -16 19 -34 19 -304 0 -174 -4 -309
-11 -343 -10 -50 -15 -57 -36 -57 -18 0 -28 -9 -38 -33 -11 -28 -19 -33 -51
-35 -72 -5 -201 -65 -203 -94 -1 -5 173 -8 386 -8 375 0 386 1 369 18 -29 32
-125 73 -189 80 -60 7 -61 8 -62 37 0 26 -4 30 -31 33 -29 3 -31 6 -44 70 -10
49 -13 139 -11 332 1 146 4 272 7 281 5 17 41 36 84 43 34 5 135 -31 250 -89
88 -44 98 -47 152 -42 68 6 110 33 138 87 30 58 26 78 -7 39 -70 -83 -171 -84
-286 -1 -58 41 -147 71 -236 77 -74 6 -91 19 -91 71 0 18 -4 34 -9 36 -5 2
-11 21 -13 43 -4 40 -20 53 -44 37z"/>
<path d="M163 826 c-35 -55 -85 -137 -113 -182 -28 -44 -48 -87 -45 -95 3 -8
23 -27 45 -42 74 -53 231 -69 332 -35 39 13 97 54 105 74 5 14 -200 369 -221
381 -8 5 -8 3 0 -8 6 -8 46 -81 89 -164 43 -82 82 -154 86 -159 23 -25 7 -32
-63 -30 -40 1 -133 2 -206 3 l-133 1 33 63 c19 34 63 113 97 175 35 62 62 115
60 116 -2 2 -32 -42 -66 -98z"/>
<path d="M1161 747 c-109 -173 -113 -182 -100 -206 31 -55 172 -98 283 -87 73
7 159 45 181 80 17 25 16 27 -90 203 -122 202 -151 240 -80 108 123 -232 144
-273 140 -277 -5 -5 -398 2 -404 7 -2 2 17 39 41 82 25 43 60 105 78 138 18
33 41 75 52 93 11 18 19 35 17 37 -2 2 -55 -78 -118 -178z"/>
</g>
</svg>
